<svg width="49" height="42" viewBox="0 0 49 42" fill="none" xmlns="http://www.w3.org/2000/svg">
<path d="M46.6031 29.9792C46.8785 29.9193 47.1552 30.07 47.4013 30.3788C47.6463 30.6886 47.8429 31.1299 47.9713 31.6064C48.0988 32.0834 48.1496 32.5639 48.1394 32.947C48.128 33.3297 48.0577 33.5841 47.971 33.6588C47.8584 33.7451 47.9395 33.7495 47.681 33.9215C47.4094 34.0949 47.212 34.2036 47.0701 34.2958C47.0183 34.3289 46.9724 34.3588 46.9319 34.3872C46.9284 34.388 46.9198 34.3935 46.9161 34.3945C46.5994 34.5891 46.2586 34.7785 45.8827 34.9347C45.5729 35.0634 45.2434 35.1823 44.8942 35.2873C44.8585 35.298 44.8218 35.3088 44.7855 35.3192C44.5372 35.5376 44.2588 35.7432 44.0379 35.8462C43.8559 35.9313 43.6933 35.9045 43.5562 35.8795C43.4614 35.8624 43.3769 35.8457 43.2991 35.867C43.2574 35.8785 43.2001 35.8978 43.1303 35.9197C43.0745 35.9372 43.0089 35.9562 42.9371 35.9751C42.6746 36.0483 42.3404 36.1091 42.0488 36.0432C41.8869 36.0069 41.7026 35.9207 41.5349 35.8381C41.2952 35.72 41.0828 35.6114 40.9901 35.6633C40.8278 35.7553 40.6361 35.723 40.4721 35.6989C40.3163 35.6757 40.183 35.6611 40.1369 35.7571C40.0826 35.8718 40.0118 35.8491 39.9029 35.8213C39.8282 35.8021 39.7347 35.7812 39.6306 35.802C39.6139 35.8054 39.5963 35.8085 39.5803 35.8102C39.4202 35.8466 39.2871 35.8391 39.1725 35.8321C38.9851 35.8206 38.845 35.81 38.7144 35.9842C38.569 36.1782 38.3984 36.3313 38.2289 36.3538C38.1517 36.3641 38.0727 36.3996 37.9912 36.4358C37.8832 36.4839 37.7701 36.5337 37.6499 36.5315C37.5509 36.5293 37.4456 36.4675 37.3529 36.4128C37.3241 36.3958 37.2955 36.3791 37.2696 36.3656C37.2027 36.393 37.1364 36.422 37.0708 36.4511C37.0657 36.4695 37.0605 36.4904 37.0552 36.5112C37.0287 36.6169 36.9959 36.7466 36.9284 36.8325C36.8848 36.8876 36.8356 36.9204 36.783 36.94C36.7114 36.9664 36.6289 36.9668 36.5425 36.9679C36.4289 36.9693 36.3072 36.9735 36.1953 37.0429C36.1193 37.0903 36.0415 37.1688 35.965 37.2473C35.8508 37.3642 35.7354 37.4815 35.6224 37.495C35.5796 37.5 35.5216 37.4609 35.4647 37.4216L35.453 37.4123C35.2328 37.5662 35.0081 37.7268 34.7802 37.8876C34.7648 37.9114 34.7481 37.9354 34.7326 37.9587C34.6559 38.0733 34.5808 38.1849 34.5522 38.3074C34.5215 38.4405 34.3572 38.5816 34.1801 38.7277C34.0639 38.8235 33.9428 38.9223 33.8509 39.024C33.8226 39.0553 33.7842 39.0614 33.7418 39.0546C33.7106 39.0462 33.6752 39.0277 33.6397 39.0098C33.5684 38.9739 33.4933 38.9375 33.4426 38.9743C33.4173 38.9928 33.3965 39.0301 33.3743 39.0688C33.3549 39.1027 33.3342 39.1391 33.3085 39.1667C33.2842 39.1923 33.2039 39.1884 33.1013 39.1853C33.0381 39.1834 32.9657 39.1815 32.8921 39.1864C32.7372 39.2951 32.5781 39.4044 32.4153 39.5134C32.4004 39.5792 32.3965 39.6591 32.4074 39.7531C32.4152 39.8204 32.4318 39.8985 32.4476 39.978C32.4691 40.0864 32.4912 40.1995 32.4955 40.2948C32.4988 40.3691 32.4802 40.4073 32.449 40.3895C32.4347 40.3809 32.4181 40.3605 32.4028 40.3426C32.3854 40.3222 32.3687 40.3035 32.3609 40.3068C32.3554 40.3098 32.3565 40.3311 32.3581 40.3548C32.3607 40.3928 32.3634 40.4407 32.3409 40.4524C32.256 40.4962 32.1496 40.5268 32.0435 40.5565C31.9256 40.5895 31.8075 40.6225 31.7234 40.6729C31.629 40.7292 31.4579 40.7259 31.2843 40.7216C31.1631 40.7187 31.0404 40.7157 30.9427 40.7326C30.8472 40.7492 30.7672 40.8205 30.6884 40.8895C30.5941 40.9724 30.5002 41.0525 30.3877 41.0281C30.3647 41.0225 30.316 40.9597 30.2565 40.8816C30.2456 40.8671 30.2334 40.8514 30.2217 40.8362C30.1922 40.7917 30.1598 40.7442 30.1276 40.701C30.0371 40.7325 29.9452 40.7626 29.8536 40.7896C29.8538 40.8 29.8542 40.8112 29.8545 40.8219L29.8541 40.8228C29.8605 41.0745 29.8757 41.4156 29.6689 41.2854C29.6162 41.2522 29.5619 41.1753 29.5128 41.1063C29.4648 41.0388 29.42 40.979 29.3885 40.9743C29.353 40.97 29.3351 41.0291 29.3173 41.0936C29.2911 41.1851 29.2648 41.2867 29.1763 41.2374C29.1706 41.2342 29.164 41.2302 29.1576 41.2267C29.0942 41.1917 28.9994 41.1396 28.8732 41.0112C28.669 41.0468 28.4635 41.0773 28.2584 41.1068C27.9184 41.1554 27.5741 41.202 27.2724 41.2476C27.1266 41.2679 26.9208 41.1285 26.6564 40.8715C26.3964 40.6092 26.057 40.2855 25.707 39.9504C25.3548 39.6174 25.1453 39.1623 25.1071 38.7403C25.0681 38.3186 25.1678 37.9888 25.3446 37.828C25.6355 37.5662 25.9055 37.3377 26.1812 37.1217C26.1929 37.1052 26.2063 37.0884 26.2185 37.0728C26.3108 36.9554 26.3643 36.7815 26.4216 36.6073C26.435 36.5675 26.4484 36.5275 26.4619 36.4886C26.5669 36.1892 26.9867 36.1165 27.2125 36.084C27.2165 36.0833 27.2216 36.0826 27.2256 36.0819C27.2788 36.074 27.3276 36.0587 27.3829 36.0409C27.5158 35.9985 27.6972 35.9393 28.1138 35.9457C28.2175 35.9026 28.3233 35.8619 28.4296 35.8249C28.4465 35.819 28.4644 35.8133 28.4814 35.8075C29.3158 35.5281 30.3341 35.2528 31.5151 35.0036C31.5286 34.9967 31.543 34.9893 31.5568 34.9822C31.7095 34.904 31.8873 34.8152 32.0617 34.7521C32.1682 34.7144 32.2718 34.6897 32.3642 34.6914C32.6348 34.6973 32.834 34.7201 32.9991 34.7423C33.8185 34.5903 34.6402 34.3494 35.5724 34.0309C35.5814 34.0279 35.5909 34.0251 35.6 34.0221C35.8805 33.929 36.1545 33.8344 36.4178 33.7322C36.6602 33.6382 36.8964 33.5403 37.1253 33.4372C37.2431 33.3376 37.3493 33.2319 37.4458 33.1342C37.5816 32.9968 37.6991 32.8746 37.8068 32.806C37.9285 32.7286 38.0675 32.6754 38.2058 32.6367C38.4534 32.5533 38.696 32.5122 38.8936 32.4864C38.9543 32.4785 39.0118 32.4712 39.0638 32.4652C39.3323 32.3559 39.5967 32.2641 39.8527 32.1825C39.8733 32.198 39.8946 32.2144 39.9155 32.2312C40.1798 32.4463 40.4379 32.4043 40.823 32.3565C40.9896 32.3357 41.1793 32.3139 41.393 32.3114C41.53 32.3101 41.6081 32.4054 41.6719 32.4823C41.6904 32.5046 41.7083 32.5261 41.7254 32.5428C41.7846 32.6003 41.834 32.5263 41.8886 32.4389C41.96 32.3255 42.0411 32.1896 42.1773 32.2854C42.2533 32.3387 42.3206 32.3746 42.3787 32.3956C42.6322 32.4975 42.7246 32.2728 42.7795 32.101C42.7998 32.04 42.8182 31.9845 42.842 31.9497C42.9193 31.8375 43.0883 31.8787 43.242 31.9556C43.3633 32.0175 43.5224 31.8626 43.6236 31.6962C43.662 31.6335 43.7355 31.6048 43.8224 31.57C43.9125 31.5341 44.0183 31.4907 44.1136 31.3969C44.3546 31.1591 44.4903 31.0326 44.5997 30.932C44.6308 30.9034 44.6602 30.8767 44.6893 30.8496C44.7819 30.7637 44.9063 30.6717 45.0353 30.5784C45.11 30.5244 45.1871 30.4705 45.2595 30.4159L45.2415 30.4231C45.34 30.355 45.4236 30.2921 45.4851 30.2355C45.6748 30.1926 45.8092 30.1742 45.853 30.1907C45.9025 30.2043 46.3589 30.0207 46.6031 29.9792ZM3.48497 0.0726485C3.8586 0.18468 4.28368 0.413703 4.67701 0.712129C5.07033 1.0107 5.40425 1.36053 5.61496 1.68764C5.82494 2.0141 5.89476 2.29019 5.82152 2.45607C5.72013 2.68391 5.62019 2.91775 5.57991 3.07526L5.65969 2.9351C5.65114 2.99928 5.64675 3.05766 5.64633 3.11052C5.64745 3.29324 5.67098 3.406 5.6638 3.68506L5.66753 3.47284C5.67123 3.52224 5.6739 3.5731 5.67673 3.62363C5.69142 3.88668 5.70734 4.16314 5.72321 4.4492C5.72482 4.47832 5.72624 4.50894 5.72787 4.53835C5.88051 4.76097 6.02852 4.98468 6.09738 5.1501C6.15406 5.28662 6.10952 5.404 6.07193 5.5049C6.04627 5.57361 6.02444 5.63562 6.04011 5.69059C6.04879 5.7203 6.0638 5.76084 6.08244 5.809C6.12965 5.93094 6.19905 6.10637 6.23444 6.30558C6.26168 6.45443 6.2735 6.61156 6.25583 6.76574C6.23538 6.94533 6.16596 7.15882 6.09663 7.35923C5.99811 7.6458 5.8986 7.90549 5.95276 8.02539C6.05009 8.23497 6.0172 8.49588 5.98235 8.72367C5.9494 8.94119 5.91558 9.13128 6.00272 9.23491C6.10711 9.35861 6.07251 9.47336 6.01732 9.63996C5.97881 9.75599 5.93074 9.89774 5.90822 10.0912C5.88236 10.3123 5.80647 10.4714 5.74034 10.6033L5.67423 10.7319C5.61913 10.8508 5.59713 10.9601 5.66945 11.1127C5.77675 11.3383 5.83512 11.5672 5.77855 11.7332C5.75265 11.8091 5.74795 11.8982 5.7433 11.9897C5.73718 12.1104 5.73082 12.2365 5.6746 12.3453C5.628 12.4351 5.52491 12.5033 5.43408 12.5631C5.40602 12.5816 5.3786 12.5994 5.35485 12.6168C5.34917 12.6907 5.34411 12.7654 5.34053 12.8389C5.35474 12.852 5.37094 12.8662 5.38722 12.8805C5.46968 12.9534 5.57145 13.0417 5.61789 13.143C5.69125 13.3034 5.628 13.4325 5.56323 13.5696C5.51291 13.6759 5.46142 13.7882 5.47322 13.9175C5.476 13.9474 5.48274 13.979 5.49093 14.0112C5.50657 14.0847 5.53001 14.1624 5.55253 14.2394C5.60344 14.4141 5.65031 14.5883 5.6075 14.7048C5.59109 14.7481 5.52876 14.7825 5.4669 14.8158L5.46646 14.8167C5.46238 14.8189 5.4582 14.8214 5.45415 14.8236C5.48166 15.1118 5.50844 15.4021 5.53333 15.6923C5.54625 15.7185 5.55889 15.7461 5.57129 15.7722C5.63199 15.9005 5.69023 16.0255 5.78184 16.1144C5.88155 16.2099 5.92061 16.43 5.95818 16.6598C5.98274 16.81 6.00705 16.9646 6.0493 17.0954C6.07419 17.1711 6.00382 17.2312 5.93046 17.2901C5.86195 17.345 5.79075 17.4029 5.79425 17.476C5.79619 17.513 5.81557 17.5565 5.83606 17.6018C5.85407 17.6415 5.87239 17.6846 5.88136 17.7272C5.88939 17.7669 5.84264 17.8443 5.78282 17.9423C5.74574 18.003 5.70363 18.0729 5.66606 18.1458C5.66914 18.3561 5.66973 18.5651 5.66812 18.7695C5.71412 18.8205 5.778 18.8674 5.86173 18.9119C5.92204 18.9438 5.99572 18.9757 6.07072 19.0073C6.17269 19.0505 6.27856 19.0951 6.36003 19.1452C6.42315 19.1839 6.445 19.2195 6.4136 19.2353C6.39859 19.2425 6.37204 19.2463 6.34836 19.249C6.32158 19.2519 6.29786 19.2546 6.29623 19.2628C6.29593 19.269 6.31286 19.2791 6.33347 19.2907C6.36653 19.3094 6.40877 19.3336 6.40652 19.358C6.39698 19.4446 6.36657 19.5385 6.33705 19.6275C6.33569 19.6313 6.33433 19.6359 6.33298 19.6397C6.3013 19.7276 6.27145 19.8185 6.27372 19.8958C6.27626 19.9822 6.18992 20.0956 6.10453 20.2162C6.04498 20.3002 5.98623 20.3883 5.95666 20.4674C5.92803 20.5448 5.95547 20.6346 5.98258 20.7224C6.01512 20.8277 6.04539 20.9313 5.97537 21.0097C5.96079 21.0254 5.88438 21.0391 5.78835 21.0551C5.72015 21.0666 5.64156 21.0801 5.56906 21.0972C5.55593 21.2073 5.53899 21.3199 5.51892 21.4338C5.5284 21.4391 5.53856 21.4457 5.54842 21.4512C5.77321 21.5751 6.07992 21.7512 5.86017 21.919C5.80406 21.9615 5.70815 21.9807 5.62256 21.9966C5.53895 22.0123 5.46351 22.0266 5.44276 22.0601C5.4204 22.0983 5.46189 22.1548 5.50605 22.2168C5.56851 22.3043 5.6361 22.4058 5.54323 22.4797C5.53709 22.4845 5.53059 22.4906 5.52383 22.496C5.45715 22.5497 5.35701 22.6297 5.17438 22.6908C5.14872 22.7601 5.12208 22.8308 5.09381 22.9008C5.02362 23.0513 4.94985 23.2018 4.87553 23.3508C4.70879 23.6851 4.53339 24.0195 4.37293 24.3365C4.29405 24.4906 4.04852 24.6025 3.67555 24.6697C3.30193 24.7353 2.83146 24.7689 2.34784 24.7423C1.86422 24.7167 1.4003 24.5947 1.05557 24.3895C0.711145 24.1869 0.515296 23.9365 0.496318 23.7175C0.4667 23.36 0.443406 23.019 0.430391 22.6821C0.42403 22.6636 0.418565 22.6443 0.413124 22.626C0.371858 22.4877 0.262111 22.3441 0.153305 22.2002C0.128465 22.1673 0.102843 22.1344 0.0788715 22.1015C0.00747303 22.0034 -0.00867196 21.8858 0.00405215 21.7687C0.0085633 21.6575 0.0791988 21.534 0.126543 21.4452C0.12781 21.4428 0.130664 21.4394 0.131878 21.437C0.14992 21.4029 0.158881 21.3676 0.168954 21.3264C0.193252 21.2253 0.225958 21.0935 0.414055 20.7837C0.420738 20.687 0.429863 20.5874 0.441909 20.4862C0.507221 19.9404 0.621347 19.3253 0.812473 18.6704C0.992298 18.0886 1.19815 17.5682 1.39959 17.0528C1.40061 17.0394 1.40256 17.0248 1.40357 17.0109C1.42368 16.7401 1.44213 16.4126 1.55322 16.2204C1.69512 15.9763 1.81629 15.8118 1.91844 15.6768C2.11723 15.0999 2.28309 14.5143 2.38486 13.9203C2.42722 13.6339 2.47054 13.353 2.50978 13.0774C2.55261 12.7766 2.59222 12.4804 2.62036 12.1899C2.64623 11.9226 2.66504 11.6582 2.67697 11.4009C2.6417 11.247 2.59542 11.1011 2.55174 10.9697C2.49039 10.7849 2.43362 10.6264 2.41948 10.503C2.41553 10.4685 2.41349 10.4329 2.41281 10.3985C2.40654 10.169 2.48135 9.90251 2.53185 9.68885C2.54121 9.64972 2.55034 9.61148 2.55759 9.57689C2.51883 9.38602 2.47149 9.19299 2.42047 9.00011C2.43855 8.98545 2.45846 8.97013 2.47777 8.95491C2.71879 8.76386 2.69528 8.54829 2.64606 8.21565C2.62442 8.07063 2.59834 7.90296 2.58378 7.70262C2.57463 7.57405 2.66245 7.49037 2.7346 7.42219C2.7557 7.40206 2.7754 7.38262 2.79073 7.3643C2.8431 7.30162 2.76543 7.25912 2.67367 7.21185C2.60861 7.17832 2.53644 7.14127 2.49815 7.09192C2.46494 7.04319 2.45486 6.9832 2.49154 6.90622C2.75022 6.36558 2.47076 6.20547 2.25772 6.07764C2.19549 6.04043 2.13917 6.00511 2.10438 5.96583C1.99225 5.83831 2.04346 5.61754 2.1383 5.44297C2.21309 5.30447 2.08316 5.07025 1.93888 4.89125C1.88451 4.82395 1.87016 4.72392 1.85609 4.60598C1.84151 4.48353 1.82616 4.34088 1.76257 4.18999C1.66147 3.94968 1.59781 3.77089 1.55015 3.62939C1.53974 3.59031 1.55899 3.47037 1.55197 3.43155C1.53288 3.33823 1.5195 3.25526 1.50814 3.1773C1.49945 3.11736 1.49146 3.05915 1.48482 3.00058C1.46359 2.81554 1.46663 2.57005 1.4918 2.31232C1.52063 2.0037 1.58329 1.6844 1.62097 1.44202C1.70398 1.2856 1.79428 1.13766 1.88721 0.999129C1.89659 0.961699 1.96857 0.868977 1.98039 0.832913C2.23286 0.52386 2.44985 0.324101 2.66592 0.121391C2.82068 -0.0212524 3.11175 -0.0389405 3.48497 0.0726485ZM33.2033 6.0534C33.6834 6.16736 34.1312 6.34493 34.455 6.55991C34.7785 6.77397 34.9494 7.01119 34.9367 7.21182C34.9246 7.40012 34.9097 7.58617 34.9181 7.69859C34.9165 7.70205 34.9142 7.71192 34.9126 7.71556C34.8882 7.96902 34.852 8.21457 34.8055 8.45116C34.6993 8.99017 34.5398 9.49205 34.3185 9.94893C34.1634 10.2684 33.9897 10.5727 33.8032 10.8633C33.784 10.8932 33.7643 10.9235 33.7449 10.953C33.7087 11.2642 33.6548 11.5695 33.5819 11.7631C33.5218 11.9227 33.4015 11.9928 33.2991 12.0503C33.2285 12.0901 33.1653 12.125 33.1352 12.1812C33.1191 12.2114 33.0996 12.2546 33.0765 12.3059C33.0626 12.3368 33.0466 12.3717 33.0295 12.408L33.1502 12.2033C33.0783 12.4152 32.9613 12.7011 32.7418 12.8992C32.6273 13.0022 32.4569 13.1014 32.2955 13.1946C32.0646 13.3278 31.8511 13.452 31.8375 13.5641C31.8144 13.7608 31.6635 13.9209 31.5313 14.0611C31.4054 14.1947 31.2947 14.3123 31.3289 14.427C31.3697 14.5636 31.2957 14.6244 31.1849 14.7154C31.1164 14.7716 31.034 14.841 30.9583 14.9447C30.9525 14.9504 30.9463 14.9568 30.9406 14.9641C30.8776 15.0453 30.7754 15.1202 30.6891 15.1862C30.5667 15.2822 30.472 15.3676 30.524 15.5691C30.5818 15.7934 30.5851 16.0354 30.4792 16.2006C30.4314 16.2753 30.3975 16.3722 30.3581 16.4765C30.3065 16.6139 30.2427 16.767 30.129 16.8858C30.0352 16.9835 29.8942 17.0328 29.7705 17.0704C29.7321 17.0821 29.695 17.0925 29.6609 17.1041C29.603 17.1938 29.5391 17.2856 29.4691 17.3766C29.4694 17.4007 29.4695 17.4276 29.4695 17.4548C29.4698 17.5915 29.456 17.7699 29.3535 17.9365C29.1895 18.2007 28.9103 18.3265 28.6276 18.3999C28.477 18.4394 28.3231 18.4656 28.1648 18.5012C28.1215 18.5086 28.078 18.5211 28.0355 18.5391C27.9442 18.5777 27.8501 18.6458 27.7566 18.7119C27.6181 18.8101 27.485 18.9043 27.3772 18.8967C27.3366 18.8937 27.2889 18.8434 27.2421 18.7943L27.2412 18.7938C27.2382 18.7906 27.2352 18.7868 27.2321 18.7837C27.0089 18.8923 26.806 19.0042 26.6457 19.1168C26.6355 19.1364 26.6247 19.1567 26.6153 19.1758C26.5683 19.2704 26.5343 19.3613 26.5395 19.4685C26.5439 19.5852 26.4887 19.6827 26.4714 19.7717C26.4591 19.8298 26.4604 19.8865 26.4812 19.9469C26.4927 19.9808 26.4462 19.9398 26.3935 19.9018C26.3548 19.8737 26.313 19.8473 26.2954 19.8491C26.2868 19.8539 26.2794 19.8612 26.2746 19.8703C26.2631 19.8928 26.2622 19.9299 26.2625 19.9684C26.2627 20.0024 26.2631 20.0386 26.2562 20.0684C26.2488 20.096 26.1873 20.1125 26.1082 20.1361C26.0589 20.1508 26.0026 20.1696 25.949 20.1937C25.8864 20.325 25.8275 20.4566 25.7738 20.5857C25.8003 20.6409 25.8437 20.7028 25.9057 20.7711C25.9502 20.82 26.0069 20.8746 26.0646 20.9297C26.1434 21.0049 26.2259 21.083 26.2871 21.1506C26.3344 21.203 26.3471 21.2334 26.3167 21.2274C26.3026 21.2244 26.279 21.2144 26.258 21.2049C26.2337 21.1938 26.2107 21.1836 26.2084 21.1881C26.2085 21.1924 26.2221 21.2062 26.2373 21.2217C26.2629 21.2478 26.296 21.282 26.2898 21.2948C26.2654 21.342 26.2205 21.3848 26.1782 21.4263C26.1311 21.4723 26.0859 21.5185 26.0748 21.5675C26.0616 21.6218 25.9663 21.6566 25.8716 21.6957C25.8054 21.7229 25.7392 21.7518 25.7033 21.786C25.6683 21.8197 25.6856 21.8781 25.7056 21.931C25.7135 21.9521 25.7224 21.9729 25.7271 21.9915C25.7284 22.0511 25.7157 22.1033 25.6622 22.1349C25.6452 22.1444 25.5679 22.1375 25.4723 22.1284C25.4043 22.1219 25.3266 22.114 25.2536 22.1115C25.2232 22.1996 25.19 22.2888 25.155 22.3759C25.1634 22.3821 25.1722 22.3894 25.1809 22.3958L25.3386 22.5143C25.4908 22.6366 25.6044 22.7641 25.4329 22.8241C25.3743 22.8446 25.2787 22.8386 25.1938 22.8341C25.111 22.8297 25.0365 22.8263 25.0133 22.8477C24.9879 22.8725 25.0235 22.9233 25.0629 22.9776C25.1184 23.0541 25.1802 23.1399 25.0864 23.1774C25.0804 23.1799 25.0737 23.1824 25.0671 23.1851C25 23.2129 24.9002 23.2535 24.7206 23.2715C24.6201 23.4533 24.5141 23.636 24.4048 23.8174C24.2224 24.1199 24.0311 24.4234 23.8458 24.7291C23.7548 24.8773 23.4969 24.9793 23.1162 25.016C22.7346 25.0518 22.2614 25.0215 21.7878 24.9192C21.3144 24.8174 20.871 24.6479 20.5441 24.4398C20.218 24.2319 20.0366 24.002 20.029 23.8059C20.0179 23.4869 20.0118 23.1672 20.0154 22.8501C20.01 22.8322 20.0053 22.8129 20.0008 22.7953C19.9666 22.6622 19.8645 22.5171 19.7636 22.3725C19.7407 22.3396 19.7169 22.3062 19.6949 22.2734C19.5251 22.0198 19.7242 21.6761 19.8362 21.4906C19.838 21.4874 19.8406 21.4838 19.8424 21.4806C19.8686 21.4367 19.8867 21.3926 19.9064 21.3412C19.9539 21.2178 20.0174 21.0487 20.2753 20.7413C20.3044 20.6369 20.3369 20.5318 20.3724 20.4288C20.4078 20.3261 20.4458 20.2231 20.4855 20.1213C21.0086 18.7624 21.9294 17.7497 22.9353 16.9854C22.9462 16.9722 22.9571 16.958 22.9685 16.9443C23.0362 16.8627 23.1114 16.7753 23.1898 16.6913C23.4439 16.4231 23.7558 16.1898 24.0059 16.0975C24.4653 15.9279 24.7708 15.9059 25.0066 15.8962C25.998 15.649 26.6743 15.6777 27.2828 15.5723C27.2794 15.5944 27.264 15.6235 27.2671 15.6389C27.2711 15.6636 27.3271 15.6334 27.3903 15.5233C27.4493 15.4226 27.5119 15.2662 27.5684 15.0768C27.5619 14.9511 27.5455 14.8179 27.5313 14.6876C27.5113 14.5044 27.4984 14.3225 27.5272 14.1726C27.5687 13.9579 27.6769 13.7116 27.8394 13.4481C27.9181 13.3356 28.0005 13.2324 28.0731 13.1433C28.1025 13.1072 28.1319 13.0732 28.1572 13.0416C28.2271 12.8299 28.2955 12.6177 28.3645 12.4081C28.3883 12.404 28.4133 12.4005 28.4384 12.3967C28.7521 12.3499 28.8544 12.1475 29.0148 11.8333C29.0846 11.6967 29.1657 11.5382 29.2792 11.3642C29.3525 11.2518 29.4745 11.2384 29.5742 11.2282C29.6035 11.2252 29.632 11.2224 29.6556 11.2174C29.7351 11.1998 29.7016 11.1183 29.6613 11.0226C29.6085 10.8979 29.5457 10.7484 29.7088 10.6825C29.8178 10.6386 29.8983 10.5902 29.9559 10.5416C29.9623 10.5138 30.0185 10.4452 30.0285 10.4175C30.2587 10.2641 30.1771 10.0483 30.1093 9.88037C30.0843 9.81808 30.062 9.76094 30.0579 9.71556C30.045 9.56872 30.2062 9.47213 30.3749 9.42393C30.5083 9.38552 30.528 9.16172 30.4953 8.97194C30.4832 8.90051 30.5194 8.8323 30.5607 8.753C30.6036 8.67079 30.6525 8.5739 30.6585 8.44969C30.6724 8.13642 30.6752 7.97717 30.678 7.85024C30.6787 7.81435 30.6792 7.78098 30.6792 7.74762C30.6788 7.64247 30.6929 7.51937 30.7024 7.39935C30.714 7.25563 30.7185 7.11399 30.6951 7.00356C30.7672 6.89048 30.838 6.78029 30.9032 6.67793L30.8977 6.69927C30.9908 6.47292 31.0708 6.33646 31.1441 6.20111C31.223 6.05816 31.4757 5.96073 31.8591 5.92975C32.2426 5.89919 32.7227 5.94043 33.2033 6.0534Z" fill="#FF8800"/>
</svg>
