<svg width="21" height="19" viewBox="0 0 21 19" fill="none" xmlns="http://www.w3.org/2000/svg">
<path d="M10.6318 0.139282C11.2984 -0.252407 12.1387 0.228333 12.1387 1.00159V17.5045L12.1289 17.6461C12.0402 18.2887 11.3566 18.6791 10.7578 18.4293L10.6318 18.3658L2.46484 13.5621C-0.821525 11.6288 -0.821625 6.87622 2.46484 4.94299L10.6318 0.139282ZM13.1387 2.25256C14.1235 2.2526 15.0989 2.44698 16.0088 2.82385C16.9186 3.20076 17.745 3.75347 18.4414 4.44983C19.1378 5.14622 19.6905 5.97259 20.0674 6.88245C20.4443 7.79235 20.6387 8.7677 20.6387 9.75256C20.6387 10.7374 20.4443 11.7128 20.0674 12.6227C19.6905 13.5326 19.1378 14.3598 18.4414 15.0563C17.745 15.7526 16.9186 16.3054 16.0088 16.6823C15.0989 17.0591 14.1235 17.2525 13.1387 17.2526V15.2438C13.8597 15.2437 14.5741 15.1017 15.2402 14.8258C15.9063 14.5499 16.5117 14.1452 17.0215 13.6354C17.5313 13.1255 17.936 12.5202 18.2119 11.8541C18.4878 11.1879 18.6299 10.4736 18.6299 9.75256C18.6299 9.03151 18.4878 8.31717 18.2119 7.651C17.936 6.98488 17.5313 6.37959 17.0215 5.86975C16.5117 5.35994 15.9063 4.95527 15.2402 4.67932C14.5741 4.4034 13.8597 4.26139 13.1387 4.26135V2.25256ZM3.47852 6.66663C1.50689 7.82658 1.50699 10.6785 3.47852 11.8385L10.1387 15.7555V2.74866L3.47852 6.66663ZM13.2129 6.25256C14.0529 6.44255 14.7997 6.89501 15.3311 7.53577C15.8624 8.17653 16.1473 8.9683 16.1387 9.78088C16.13 10.5933 15.828 11.3788 15.2832 12.0094C14.7384 12.64 13.9825 13.0784 13.1387 13.2526L13.2129 6.25256Z" fill="#414651"/>
</svg>
