<svg width="28" height="28" viewBox="0 0 28 28" fill="none" xmlns="http://www.w3.org/2000/svg">
<path d="M3.49992 14H3.03325C2.64665 14 2.33325 14.3134 2.33325 14.7V24.9667C2.33325 25.3533 2.64665 25.6667 3.03325 25.6667H24.9666C25.3532 25.6667 25.6666 25.3533 25.6666 24.9667V14.7C25.6666 14.3134 25.3532 14 24.9666 14H24.4999M3.49992 14V3.03337C3.49992 2.64678 3.81332 2.33337 4.19992 2.33337H23.7999C24.1866 2.33337 24.4999 2.64678 24.4999 3.03337V14M3.49992 14H24.4999H3.49992Z" fill="#FFE7CC"/>
<path d="M3.49992 14H3.03325C2.64665 14 2.33325 14.3134 2.33325 14.7V24.9667C2.33325 25.3533 2.64665 25.6667 3.03325 25.6667H24.9666C25.3532 25.6667 25.6666 25.3533 25.6666 24.9667V14.7C25.6666 14.3134 25.3532 14 24.9666 14H24.4999M3.49992 14V3.03337C3.49992 2.64678 3.81332 2.33337 4.19992 2.33337H23.7999C24.1866 2.33337 24.4999 2.64678 24.4999 3.03337V14M3.49992 14H24.4999" stroke="#FF8800" stroke-width="1.5"/>
<path d="M8.16675 7H19.8334H8.16675Z" fill="#FFE7CC"/>
<path d="M8.16675 7H19.8334" stroke="#FF8800" stroke-width="1.5" stroke-linecap="round" stroke-linejoin="round"/>
<path d="M8.16675 10.5H19.8334H8.16675Z" fill="#FFE7CC"/>
<path d="M8.16675 10.5H19.8334" stroke="#FF8800" stroke-width="1.5" stroke-linecap="round" stroke-linejoin="round"/>
<path d="M10.5 19.8334H17.5H10.5Z" fill="#FFE7CC"/>
<path d="M10.5 19.8334H17.5" stroke="#FF8800" stroke-width="1.5" stroke-linecap="round" stroke-linejoin="round"/>
</svg>
